HIERARCHY
ROOT Hips
{
    OFFSET 0.000000 0.000000 0.000000
    CHANNELS 6 Xposition Yposition Zposition Zrotation Xrotation Yrotation
    JOINT Spine
    {
        OFFSET -0.000000 8.349382 0.000000
        CHANNELS 3 Zrotation Xrotation Yrotation
        JOINT Spine1
        {
            OFFSET -0.000000 23.269058 0.000000
            CHANNELS 3 Zrotation Xrotation Yrotation
            JOINT Neck
            {
                OFFSET -0.000000 23.173496 2.106681
                CHANNELS 3 Zrotation Xrotation Yrotation
                JOINT Head
                {
                    OFFSET -0.000000 14.255042 -2.036435
                    CHANNELS 3 Zrotation Xrotation Yrotation
                    End Site
                    {
                        OFFSET -0.000000 25.455433 0.000000
                    }
                }
            }
            JOINT LeftShoulder
            {
                OFFSET 3.917082 21.531742 0.000256
                CHANNELS 3 Zrotation Xrotation Yrotation
                JOINT LeftArm
                {
                    OFFSET 10.728225 0.000000 0.000000
                    CHANNELS 3 Zrotation Xrotation Yrotation
                    JOINT LeftForeArm
                    {
                        OFFSET 30.046112 0.000000 0.000000
                        CHANNELS 3 Zrotation Xrotation Yrotation
                        JOINT LeftHand
                        {
                            OFFSET 29.023712 0.000000 0.000000
                            CHANNELS 3 Zrotation Xrotation Yrotation
                            End Site
                            {
                                OFFSET 15.273261 0.000000 0.000000
                            }
                        }
                    }
                }
            }
            JOINT RightShoulder
            {
                OFFSET -3.920664 21.531742 0.000256
                CHANNELS 3 Zrotation Xrotation Yrotation
                JOINT RightArm
                {
                    OFFSET -10.728225 0.000000 0.000000
                    CHANNELS 3 Zrotation Xrotation Yrotation
                    JOINT RightForeArm
                    {
                        OFFSET -30.046112 0.000000 0.000000
                        CHANNELS 3 Zrotation Xrotation Yrotation
                        JOINT RightHand
                        {
                            OFFSET -29.023712 0.000000 0.000000
                            CHANNELS 3 Zrotation Xrotation Yrotation
                            End Site
                            {
                                OFFSET -15.273261 0.000000 0.000000
                            }
                        }
                    }
                }
            }
        }
    }
    JOINT LeftUpLeg
    {
        OFFSET 10.182174 0.000000 0.000000
        CHANNELS 3 Zrotation Xrotation Yrotation
        JOINT LeftLeg
        {
            OFFSET -0.000000 -49.689274 0.000000
            CHANNELS 3 Zrotation Xrotation Yrotation
            JOINT LeftFoot
            {
                OFFSET -0.000000 -39.155319 0.000000
                CHANNELS 3 Zrotation Xrotation Yrotation
                JOINT LeftToeBase
                {
                    OFFSET -0.000000 -6.618412 15.273261
                    CHANNELS 3 Zrotation Xrotation Yrotation
                    End Site
                    {
                        OFFSET -0.000000 0.000000 4.072869
                    }
                }
            }
        }
    }
    JOINT RightUpLeg
    {
        OFFSET -10.182174 0.000000 0.000000
        CHANNELS 3 Zrotation Xrotation Yrotation
        JOINT RightLeg
        {
            OFFSET -0.000000 -49.689274 0.000000
            CHANNELS 3 Zrotation Xrotation Yrotation
            JOINT RightFoot
            {
                OFFSET -0.000000 -39.155319 0.000000
                CHANNELS 3 Zrotation Xrotation Yrotation
                JOINT RightToeBase
                {
                    OFFSET -0.000000 -6.618412 15.273261
                    CHANNELS 3 Zrotation Xrotation Yrotation
                    End Site
                    {
                        OFFSET -0.000000 0.000000 4.072869
                    }
                }
            }
        }
    }
}
MOTION
Frames:    11
Frame Time:    0.008333
10.656315    98.951721    24.803328    -1.093626    2.328823    90.594536    -2.858868    -3.130444    0.225795    8.297422    6.124259    -0.140519    -1.786536    10.774025    -0.818197    -2.449702    -10.107990    -1.319434    -0.821161    6.962532    -16.437929    -47.947533    9.060263    -12.381968    11.679597    -30.283794    -101.103271    -7.713582    -18.217796    15.500836    -1.242863    10.058579    -19.421383    50.917290    47.268139    24.612724    -13.628421    -23.846209    51.740734    -34.987484    -20.575527    9.857903    0.163782    -10.034477    -7.083764    -7.629644    34.887012    -13.034168    -6.488047    -5.351439    20.985340    0.000000    0.000000    0.000000    -8.243190    -10.116742    -2.259597    3.611423    38.677895    7.512891    14.474108    -4.301764    -12.117503    0.000000    0.000000    0.000000    
10.499932    96.871498    24.858793    -0.903533    2.230858    90.679939    -2.726302    -2.535174    0.188936    8.214993    5.480934    -0.144582    -1.769221    11.915762    -0.720514    -2.266169    -11.378492    -1.219628    -0.596150    6.702500    -17.375179    -46.565781    4.733964    -11.327357    9.842500    -29.177864    -103.750771    -6.717861    -18.492731    15.577745    -0.958010    10.163204    -18.972752    50.795204    46.418480    24.755795    -13.543300    -25.167774    52.241299    -38.265152    -21.899025    8.957888    0.150241    -10.737244    -6.915560    -7.460082    38.884865    -15.282431    -3.317138    -12.329437    22.134495    0.000000    0.000000    0.000000    -8.073934    -10.545027    -2.305740    3.382424    41.380157    9.953867    11.919168    -11.194532    -12.963422    0.000000    0.000000    0.000000    
10.357022    94.759384    24.939260    -0.579291    2.105651    90.745697    -2.714918    -1.448797    0.164001    8.391137    4.150353    -0.105953    -1.882028    13.105901    -0.686092    -2.210312    -12.104445    -1.200048    -0.370327    6.396261    -18.461433    -45.134701    0.403486    -9.816227    8.149490    -27.701986    -106.182495    -4.388584    -18.226444    15.472572    -0.961688    10.469299    -18.632553    50.776535    45.761108    24.924191    -14.066191    -26.336369    52.417500    -41.563778    -22.832365    8.191458    0.289967    -11.143221    -6.591533    -7.644636    41.971012    -16.485895    1.218982    -17.922356    23.439178    0.000000    0.000000    0.000000    -8.057315    -10.604070    -1.779997    4.577127    43.495846    12.629864    6.252428    -17.909416    -16.599400    0.000000    0.000000    0.000000    
10.242729    92.667999    25.005445    -0.210864    1.969069    90.855804    -2.704217    0.006577    0.055235    8.795565    2.293805    -0.120043    -2.455092    14.196092    -0.592772    -1.973000    -12.349910    -1.056941    -0.607251    6.041513    -19.169348    -43.521358    -2.673058    -8.088155    7.658167    -27.877268    -107.982109    -2.953338    -18.542425    15.892694    -1.307909    10.913520    -18.463623    50.785477    45.480877    25.145653    -14.898243    -27.527742    52.829514    -45.586433    -23.258690    6.481001    0.501516    -11.402551    -6.065584    -7.943977    44.747417    -17.265347    6.434948    -22.908991    25.129675    0.000000    0.000000    0.000000    -7.981489    -10.433196    -2.057365    4.566792    45.911709    16.292646    0.821203    -24.399731    -20.484592    0.000000    0.000000    0.000000    
10.049848    90.839020    25.089390    -0.222436    1.882203    91.024017    -2.498599    0.974635    -0.387290    8.942500    0.757975    -0.468000    -3.559904    14.832220    -0.195594    -1.376270    -12.145778    -0.493639    -0.905394    5.672336    -18.739994    -41.633518    -4.462738    -6.724052    7.911065    -29.283861    -108.857712    -1.586409    -19.368292    15.451631    -1.747611    11.420050    -18.178061    50.862736    44.429150    25.806705    -15.704371    -27.686193    53.580959    -47.655323    -22.402954    4.885870    0.738791    -11.999579    -5.382658    -8.199976    47.364105    -18.328033    10.961965    -26.971270    27.494692    0.000000    0.000000    0.000000    -7.914732    -10.535488    -2.883535    4.164766    47.926102    19.643847    -6.549380    -28.956697    -25.375822    0.000000    0.000000    0.000000    
9.892376    89.546143    25.120890    -0.655017    2.068798    90.911392    -2.871503    0.624567    -0.557868    9.573509    0.829288    -0.642958    -4.612418    14.645538    0.035002    -0.958020    -11.925482    -0.127196    -0.935709    5.093732    -18.559212    -40.227627    -6.225393    -5.922225    8.246524    -31.287176    -109.635872    -0.340491    -20.782806    15.579201    -2.530454    11.690629    -18.207010    51.606419    42.379620    26.224352    -15.897591    -27.454334    55.257694    -48.953430    -21.341297    3.676491    0.598789    -12.741147    -4.166098    -7.892996    49.121738    -19.092274    14.389200    -29.510933    29.312250    0.000000    0.000000    0.000000    -8.002105    -10.977208    -3.838200    3.553062    48.897827    21.688553    -12.664012    -31.540504    -29.569906    0.000000    0.000000    0.000000    
9.827680    88.978958    25.066067    -1.112441    2.289406    90.596535    -3.226617    0.090098    -0.491623    10.044317    1.173819    -0.597462    -5.130226    14.373594    0.090567    -0.851067    -12.127697    -0.023628    -1.102183    4.275218    -18.348719    -38.745068    -8.474053    -5.172714    8.060292    -32.195831    -110.794113    0.004672    -21.749517    15.228176    -2.944458    11.367108    -18.264465    52.609749    40.489353    25.508736    -15.884959    -27.683472    57.623920    -48.918289    -20.914963    3.032367    0.328521    -13.090926    -3.081399    -7.510076    49.405056    -18.679260    15.989059    -30.616711    29.627645    0.000000    0.000000    0.000000    -8.008417    -11.216222    -4.918571    2.289895    48.420696    21.351749    -15.392344    -32.952095    -29.749935    0.000000    0.000000    0.000000    
9.876869    88.666878    25.088375    -1.082144    2.224051    90.261192    -3.372464    0.083766    -0.322282    10.383748    1.308051    -0.443703    -5.295657    14.570856    0.097984    -0.566415    -12.964613    0.043027    -1.141451    3.637059    -18.408289    -37.415054    -11.103917    -4.462394    7.226889    -32.344296    -112.289719    0.663629    -22.684425    15.470603    -2.868073    11.187704    -18.352102    53.354469    38.285564    24.576937    -14.952653    -28.022461    60.723866    -50.920723    -21.300781    2.993815    0.492592    -12.833328    -2.058043    -7.453413    49.281113    -18.674841    17.721779    -31.009434    30.473400    0.000000    0.000000    0.000000    -7.576891    -10.839245    -5.605588    0.829582    47.695770    20.816996    -16.764029    -34.015709    -29.152758    0.000000    0.000000    0.000000    
9.978954    88.532104    25.111860    -0.865512    2.188295    89.957649    -3.493680    0.399160    -0.076288    10.531657    1.167500    -0.196240    -5.064932    14.713631    0.001191    -0.618787    -13.493407    -0.083144    -0.814168    3.201143    -18.708187    -36.514492    -13.447732    -3.775835    6.739151    -32.575344    -113.642235    2.194510    -23.168602    16.122164    -2.828369    10.899403    -18.431950    54.243309    36.928440    23.216879    -15.671698    -28.670931    62.767292    -50.861935    -21.201605    2.940378    0.646472    -12.330736    -1.318442    -7.469379    49.034981    -18.494642    18.549269    -31.264429    30.758125    0.000000    0.000000    0.000000    -7.290586    -10.528527    -5.983439    -0.294488    47.701340    21.153206    -16.868176    -34.569427    -28.799793    0.000000    0.000000    0.000000    
10.090939    88.654831    25.094021    -0.866440    2.123550    89.732605    -3.263334    0.607278    0.034437    10.188693    0.733593    -0.044475    -4.470365    14.868548    0.018448    -1.123656    -13.668068    -0.211699    -0.430286    3.048261    -18.992310    -35.616608    -15.518080    -2.821687    5.740650    -32.489658    -115.232910    4.050014    -23.968300    16.979088    -2.500955    10.875371    -18.489218    54.672565    35.582226    22.246862    -16.254162    -28.941000    64.491432    -51.224808    -20.977835    3.251311    0.810629    -12.002526    -1.065425    -7.598349    48.440964    -18.088322    18.410282    -31.176796    30.327639    0.000000    0.000000    0.000000    -7.151180    -10.656726    -5.343569    -0.014333    47.858559    20.935150    -16.202347    -34.187855    -28.789284    0.000000    0.000000    0.000000    
10.213344    89.082123    25.052563    -0.934321    2.084491    89.523598    -3.071652    0.751769    0.080327    9.878911    0.294219    0.034760    -4.052796    14.953574    0.045990    -1.314650    -13.706036    -0.242291    -0.067658    3.161232    -19.188307    -35.354168    -16.411198    -2.064285    5.812633    -34.506981    -116.115868    4.147693    -25.893423    17.191427    -2.215240    10.827718    -18.369616    54.961472    34.699337    21.248960    -17.882719    -29.586332    65.540428    -50.320721    -20.284517    2.922554    0.943297    -11.590280    -1.167807    -7.797915    47.212448    -17.220263    17.266390    -30.662849    28.973833    0.000000    0.000000    0.000000    -7.128156    -10.725049    -4.595606    0.700060    47.401600    19.893961    -14.767378    -33.116093    -27.793587    0.000000    0.000000    0.000000    
